<svg width="12" height="10" viewBox="0 0 12 10" fill="none" xmlns="http://www.w3.org/2000/svg">
<path d="M0.404494 4.67912C0.456577 4.50203 0.560744 4.28328 0.716994 4.02287C0.883661 3.77287 1.04512 3.55412 1.20137 3.36662C1.5972 3.0437 1.98262 2.88224 2.35762 2.88224C2.9722 2.88224 3.27949 3.1687 3.27949 3.74162C3.34199 4.26245 3.45658 4.87183 3.62324 5.56974C3.68574 5.77808 3.75345 5.88224 3.82637 5.88224C3.85762 5.88224 3.9097 5.82495 3.98262 5.71037C4.43054 5.2937 4.88887 4.85099 5.35762 4.38224C6.0972 3.67391 6.60241 3.15308 6.87324 2.81974C7.21699 2.40308 7.68574 1.9187 8.27949 1.36662C8.86283 0.845784 9.31074 0.486409 9.62324 0.288493C9.94616 0.0801595 10.2482 -0.00317383 10.5295 0.0384928C10.8941 0.100993 11.0503 0.350993 10.9982 0.788493C10.967 1.03849 10.967 1.28849 10.9982 1.53849C11.0399 1.83016 11.0191 2.01766 10.9357 2.10099C10.2482 2.92391 9.70137 3.52287 9.29512 3.89787C8.31595 5.0437 7.64929 5.75724 7.29512 6.03849C6.02429 7.27808 4.91491 8.3562 3.96699 9.27287C3.57116 9.62704 3.19616 9.82495 2.84199 9.86662C2.35241 9.90829 1.89408 9.7312 1.46699 9.33537C0.966994 8.9187 0.701369 8.4187 0.670119 7.83537C0.628452 7.28328 0.576369 6.87703 0.513869 6.61662C0.409702 6.1062 0.373244 5.46037 0.404494 4.67912Z" fill="#6AA84F"/>
</svg>
